<?xml version="1.0" standalone="no"?><!DOCTYPE svg PUBLIC "-//W3C//DTD SVG 1.1//EN" "http://www.w3.org/Graphics/SVG/1.1/DTD/svg11.dtd"><svg t="1547977324662" class="icon" style="" viewBox="0 0 1024 1024" version="1.1" xmlns="http://www.w3.org/2000/svg" p-id="8364" xmlns:xlink="http://www.w3.org/1999/xlink" width="64" height="64"><defs><style type="text/css"></style></defs><path d="M512.17119722 280.60467011v32.61481687c0.40768528 0 1.15510808 0.33973755 1.49484563 0.61152792 0.20384263 0.40768528 0.33973755 0.81537054 0.54358018 1.15510809l55.64903094 113.06469787c4.62043237 9.37675962 13.38566462 15.89972288 23.64574253 17.73430662l124.3439884 21.74321107c0.40768528 0.06794774 0.88331772 0.1358949 1.29100301 0.20384263 0.20384263 0 0.54358018 0.27179037 0.6115279 0.47563245 0.1358949 0.61152791 0.33973755 1.29100299 0.54358019 1.90253091 0.1358949 0.40768528 0.54358018 1.6307411-0.61152736 2.98969184L630.73964517 556.94729446c-8.08575663 7.61012362-11.75492353 18.82146697-9.71649714 29.69307222L643.64967681 708.40234909v0.06794774c0.20384263 1.22305582-0.81537054 2.24226845-1.4268979 2.71790144-0.1358949 0.1358949-0.27179037 0.20384263-0.40768528 0.33973756-0.54358018-0.1358949-1.22305582-0.40768528-1.97047862-0.74742281l-113.06469791-56.53234923c-4.62043237-2.31021618-9.58060225-3.46532427-14.60871987-3.46532426-4.96016991 0-9.9203398 1.15510808-14.47282499 3.39737709l-113.94801561 56.53234866c-0.33973755 0.1358949-0.61152791 0.33973755-0.95126546 0.47563299-0.06794774 0-0.33973755 0.1358949-0.74742279 0.13589492-0.40768528 0-0.74742281-0.06794774-0.81537055-0.13589492-0.74742281-0.61152791-1.35895072-1.83458318-1.42689846-2.44611106v-0.06794774L403.31924643 586.84420933c2.10637356-11.00750071-1.56279337-22.35473898-9.78444491-30.03281034L304.59147864 473.98335407c-0.81537054-0.95126544-1.22305582-2.78584918-1.15510809-3.87300952 0.33973755-0.74742281 0.67947508-1.08716036 0.81536999-1.22305527 0.06794774-0.06794774 0.20384263-0.1358949 0.6115279-0.20384264 0.61152791-0.06794774 1.22305582-0.1358949 1.76663599-0.27179038l124.34398897-22.62652878c10.19213017-1.83458318 18.88941471-8.42549417 23.44189934-17.66635943L509.99687597 315.18996562c0.74742281-1.42689846 1.9025309-1.9025309 2.10637352-1.9025309V280.60467011m0.06794773 0c-13.04592652 0-25.20853534 7.81396626-31.32381332 19.97657564l-55.64903095 113.06469785-124.34398897 22.6265288c-13.92924481 1.76663601-24.32521762 11.27929054-28.67385959 24.32521761-3.46532427 12.16260881 0 26.97517133 9.58060226 36.55577361l89.55485081 83.57546772-23.50984706 121.76198242c-2.58200655 13.04592652 3.46532427 26.97517133 13.92924481 34.78913757 5.84348817 4.41658972 13.11387425 6.590911 20.31631317 6.59091101 5.63964554 0 11.21134336-1.35895072 16.17151324-4.00890445l113.9480156-56.53234921 113.06469788 56.53234921c5.23196027 2.58200655 11.27929054 4.34864198 16.51125079 4.34864199 7.81396626 0 14.81256251-2.58200655 19.97657563-6.93064855 10.46392055-7.81396626 16.5112508-20.85989333 13.92924425-34.78913757l-22.6265288-121.76198242 89.55485083-84.39083828c9.58060225-9.58060225 13.04592652-23.50984706 8.69728453-36.5557736-3.46532427-13.04592652-14.81256251-22.62652935-27.8584896-24.32521761l-124.34398842-21.74321106-55.64903093-113.06469788c-5.16401253-12.16260881-18.20993906-20.04452278-31.25586616-20.0445228z" p-id="8365" fill="#8a8a8a"></path></svg>