<?xml version="1.0" standalone="no"?><!DOCTYPE svg PUBLIC "-//W3C//DTD SVG 1.1//EN" "http://www.w3.org/Graphics/SVG/1.1/DTD/svg11.dtd"><svg t="1547816305124" class="icon" style="" viewBox="0 0 1024 1024" version="1.1" xmlns="http://www.w3.org/2000/svg" p-id="7026" xmlns:xlink="http://www.w3.org/1999/xlink" width="200" height="200"><defs><style type="text/css"></style></defs><path d="M506.3 878.2c0 18.2 14.8 32.9 33 32.9s33-14.7 33-32.9-14.8-32.9-33-32.9-33 14.7-33 32.9z" p-id="7027" fill="#8a8a8a"></path><path d="M864.7 372.2v-4.4c0-70.8-57.4-128.1-128.1-128.1H512.2l-82.6-111c-7.4-12.9-18-16.2-27.3-16l-0.1-0.1h-210c-70.8-0.1-128.2 57.3-128.2 128v542.6c0 70.8 57.4 128.1 128.1 128.1h215.1v-0.3c18.2 0 33-14.7 33-32.9s-14.8-32.9-33-32.9c-1 0-2.1 0.1-3.1 0.1H223c-35.3 0-64.1-28.7-64.1-64.1 0-5.5 0.7-10.9 2-16l73.2-282.7 0.2-0.1c6.7-28.1 31.9-49 62.2-49.1l0.2-0.1h532.7c1.3-0.1 2.5-0.1 3.8-0.1 35.3 0 64.1 28.7 64.1 64.1 0 6.7-1.1 13.3-3 19.4v0.1l-72.6 280.1c-0.1 0.6-0.3 1.1-0.4 1.7l-1.5 5.8-0.5 0.4c-1.5 3.9-3.4 7.5-5.5 11h-1.3c-2.6 4.7-5.8 9.1-9.5 12.9-11.4 10.6-26.7 17.1-43.4 17.1-1.3 0-2.6 0-3.8-0.1h-80.9c-1-0.1-2.1-0.1-3.1-0.1-18.2 0-33 14.7-33 32.9s14.8 32.9 33 32.9v0.2h91.9l0.5-0.4c59.2-0.2 108.8-40.4 123.3-95.1l0.2-0.2L955.5 530c2.9-10.8 4.5-22.1 4.5-33.8-0.1-59.6-40.5-109.6-95.3-124z m-572.1-4.9c-62.1 0-113.8 44.2-125.6 102.8l-0.5 0.4-38 160.5V240.3c0-35.3 28.7-64.1 64.1-64.1h190.7L466 287.7c6.6 11.4 19.2 17.2 31.5 15.8h238.7c35.2 0 63.9 28.5 64.1 63.8H292.6z" p-id="7028" fill="#8a8a8a"></path></svg>