<?xml version="1.0" standalone="no"?><!DOCTYPE svg PUBLIC "-//W3C//DTD SVG 1.1//EN" "http://www.w3.org/Graphics/SVG/1.1/DTD/svg11.dtd"><svg t="1547726628577" class="icon" style="" viewBox="0 0 1024 1024" version="1.1" xmlns="http://www.w3.org/2000/svg" p-id="3400" xmlns:xlink="http://www.w3.org/1999/xlink" width="20px" height="20px"><defs><style type="text/css"></style></defs><path d="M432.569718 863.803681A431.90184 431.90184 0 1 1 864.471558 431.90184 432.687117 432.687117 0 0 1 432.569718 863.803681z m0-785.276074A353.374233 353.374233 0 1 0 785.943951 431.90184 353.374233 353.374233 0 0 0 432.569718 78.527607z" fill="#ffffff" p-id="3401"></path><path d="M983.833521 1020.858896a39.263804 39.263804 0 0 1-27.484662-11.779141l-259.141104-256a39.263804 39.263804 0 0 1 55.754601-55.754602l259.141104 259.926381a39.263804 39.263804 0 0 1-27.484662 66.748466z" fill="#ffffff" p-id="3402"></path></svg>