<?xml version="1.0" standalone="no"?><!DOCTYPE svg PUBLIC "-//W3C//DTD SVG 1.1//EN" "http://www.w3.org/Graphics/SVG/1.1/DTD/svg11.dtd"><svg t="1548387316697" class="icon" style="" viewBox="0 0 1024 1024" version="1.1" xmlns="http://www.w3.org/2000/svg" p-id="1720" xmlns:xlink="http://www.w3.org/1999/xlink" width="48" height="48"><defs><style type="text/css"></style></defs><path d="M510.6421879 841.93281247c-181.72656272 0-329.04531273-147.3484378-329.04531271-329.09843765S328.91562519 183.7468746 510.6421879 183.7468746c181.72812497 0 329.04687497 147.33750037 329.04687497 329.08750021S692.37031287 841.93281247 510.6421879 841.93281247zM510.6421879 224.88125018c-159.01249961 0-287.91406247 128.92031241-287.91406248 287.95312463S351.62968747 800.78906253 510.6421879 800.78906253s287.91406247-128.92187467 287.91406247-287.95468772S669.6546875 224.88125018 510.6421879 224.88125018zM634.03437473 533.40624978L531.20937527 533.40624978l0 102.84062531c0 11.35312509-9.20781245 20.56406287-20.56562512 20.56406287-11.35781269 0-20.56406287-9.21093777-20.56406288-20.56406287l0-102.84062531-102.82812477 0c-11.35781269 0-20.56562513-9.20937469-20.56562513-20.57187496 0-11.35468735 9.20937469-20.56406287 20.56562513-20.56406286l102.82812477 0 0-102.84531291c0-11.35312509 9.20781245-20.55937527 20.56406288-20.55937527 11.35937495 0 20.56562513 9.2046871 20.56562512 20.55937527l0 102.84531291 102.82500027 0c11.35937495 0 20.56562513 9.20937469 20.56562514 20.56406286C654.59999985 524.19687509 645.39374967 533.40624978 634.03437473 533.40624978z" fill="#8a8a8a" p-id="1721"></path></svg>