<?xml version="1.0" standalone="no"?><!DOCTYPE svg PUBLIC "-//W3C//DTD SVG 1.1//EN" "http://www.w3.org/Graphics/SVG/1.1/DTD/svg11.dtd"><svg t="1547977220328" class="icon" style="" viewBox="0 0 1024 1024" version="1.1" xmlns="http://www.w3.org/2000/svg" p-id="6564" xmlns:xlink="http://www.w3.org/1999/xlink" width="64" height="64"><defs><style type="text/css"></style></defs><path d="M692.730065 467.148917c-5.59848-7.021513-14.704675-11.985101-24.85078-14.392094-11.066819-2.624705-25.468643 0.973014-37.93052-1.047207l-73.24485-0.522995 4.709388-15.700798 4.969669-27.475485c1.691828-9.726492 2.115089-23.625998 0.522995-33.755074-1.508172-9.6-0.336906-19.36298-3.400684-27.736982-5.411174-14.797111-10.974382-24.966325-23.01908-32.970582-10.059749-6.684607-28.345116-11.13493-42.90019-5.233599-15.810262 6.40973-25.047815 20.416268-29.035956 38.727176-1.134778 5.21049 0.17271 11.2748-0.784493 17.269783-1.449791 9.079437-1.561688 17.351273-3.923679 25.120791-9.496617 31.239833-30.330065 55.290308-58.594907 67.772862-9.014975 3.980844-20.027062 9.359179-32.43664 9.421209l-0.784492 253.037172h237.52003c7.4168 0 16.272444 0.808818 22.496085-0.785709 8.062638-2.064006 14.899278-7.171114 20.664386-11.775903 15.239833-12.168757 16.457317-35.178107 21.97309-57.305663l25.89677-117.751729c6.415811-25.738655 6.283238-47.175371-7.846142-64.895173z m-12.555531 41.344584l-6.53987 29.830178-24.066287 109.641657c-3.459065 13.934778-4.638845 40.656176-16.217712 45.791258-5.228734 2.319422-14.978335 1.308704-22.234587 1.308704l-47.346865-0.261497-168.200076-0.262714V491.746712l23.804789-12.0374c16.060813-9.382288 32.887875-19.360547 44.207678-33.493577 12.875409-16.076625 22.403649-33.938731 27.728468-57.829874 2.661193-11.943748-0.15325-36.286127 4.96967-44.745268 4.318966-7.130977 16.923147-14.308172 27.205473-8.112505 26.935462 16.229875 20.24599 74.851539 9.940555 103.883847-2.58092 7.269631-15.551197 29.458001-6.539871 35.849487 6.604333 4.683846 22.4523 2.880122 33.219916 2.878905h81.092209c19.632991-0.002433 37.130217-2.306043 41.069707 13.607602 1.487495 6.015659-0.962068 12.140783-2.093197 16.745572z m-327.504371-23.289092c1.022881-2.545648 1.423033-6.49122 0.261498-9.419992-1.311136-3.304599-4.434512-6.393919-7.847358-7.588294-4.727632-1.652908-38.988674-1.072748-42.90019 0.522995-3.521095 1.437628-6.77461 4.453972-8.631852 7.588294-4.596275 7.756138-2.35591 39.623565-2.354694 52.596275v131.622045c0 16.896389-3.378791 47.895401 6.016876 55.212466 2.342531 1.824401 5.450095 3.272976 8.894565 3.926112 5.537666 1.048423 34.342531 0.891524 38.453516-0.524211 3.598936-1.239377 6.694337-4.434512 7.847358-8.111289 6.087419-19.422577-20.078145-16.75287-36.098822-16.486507l0.785709-200.440897c14.625618-0.020677 31.232535 1.903459 35.573394-8.896997z" p-id="6565" fill="#8a8a8a"></path></svg>