<?xml version="1.0" standalone="no"?><!DOCTYPE svg PUBLIC "-//W3C//DTD SVG 1.1//EN" "http://www.w3.org/Graphics/SVG/1.1/DTD/svg11.dtd"><svg t="1550216136859" class="icon" style="" viewBox="0 0 1024 1024" version="1.1" xmlns="http://www.w3.org/2000/svg" p-id="3822" xmlns:xlink="http://www.w3.org/1999/xlink" width="48" height="48"><defs><style type="text/css"></style></defs><path d="M832 0H192C121.6 0 64 57.6 64 128v768c0 70.4 57.6 128 128 128h640c70.4 0 128-57.6 128-128V128c0-70.4-57.6-128-128-128z m64 896c0 38.4-25.6 64-64 64H192c-38.4 0-64-25.6-64-64V128c0-38.4 25.6-64 64-64h640c38.4 0 64 25.6 64 64v768z" fill="#cdcdcd" p-id="3823"></path><path d="M652.8 672H281.6c-12.8 0-25.6 12.8-25.6 32s12.8 32 25.6 32h371.2c12.8 0 25.6-12.8 25.6-32s-6.4-32-25.6-32zM742.4 460.8H281.6c-12.8 0-25.6 19.2-25.6 38.4s12.8 32 25.6 32h454.4c19.2-6.4 32-19.2 32-32s-12.8-38.4-25.6-38.4zM742.4 256H281.6c-12.8 0-25.6 12.8-25.6 32s12.8 32 25.6 32h454.4c19.2 0 32-12.8 32-32s-12.8-32-25.6-32z" fill="#cdcdcd" p-id="3824"></path></svg>